<?xml version="1.0" encoding="utf-8"?>
<!-- Generator: Adobe Illustrator 27.5.0, SVG Export Plug-In . SVG Version: 6.00 Build 0)  -->
<svg version="1.1" id="Layer_1" xmlns="http://www.w3.org/2000/svg" xmlns:xlink="http://www.w3.org/1999/xlink" x="0px" y="0px"
	 viewBox="0 0 500 500" style="enable-background:new 0 0 500 500;" xml:space="preserve">
<g>
	<rect x="3.46" width="5.67" height="500"/>
	<rect x="16.29" width="5.67" height="500"/>
	<rect x="29.11" width="5.67" height="500"/>
	<rect x="41.93" width="5.67" height="500"/>
	<rect x="54.75" width="5.67" height="500"/>
	<rect x="67.57" width="5.67" height="500"/>
	<rect x="80.39" width="5.67" height="500"/>
	<rect x="93.22" width="5.67" height="500"/>
	<rect x="106.04" width="5.67" height="500"/>
	<rect x="118.86" width="5.67" height="500"/>
	<rect x="131.68" width="5.67" height="500"/>
	<rect x="144.5" width="5.67" height="500"/>
	<rect x="157.32" width="5.67" height="500"/>
	<rect x="170.14" width="5.67" height="500"/>
	<rect x="182.97" width="5.67" height="500"/>
	<rect x="195.79" width="5.67" height="500"/>
	<rect x="208.61" width="5.67" height="500"/>
	<rect x="221.43" width="5.67" height="500"/>
	<rect x="234.25" width="5.67" height="500"/>
	<rect x="247.07" width="5.67" height="500"/>
	<rect x="259.9" width="5.67" height="500"/>
	<rect x="272.72" width="5.67" height="500"/>
	<rect x="285.54" width="5.67" height="500"/>
	<rect x="298.36" width="5.67" height="500"/>
	<rect x="311.18" width="5.67" height="500"/>
	<rect x="324" width="5.67" height="500"/>
	<rect x="336.83" width="5.67" height="500"/>
	<rect x="349.65" width="5.67" height="500"/>
	<rect x="362.47" width="5.67" height="500"/>
	<rect x="375.29" width="5.67" height="500"/>
	<rect x="388.11" width="5.67" height="500"/>
	<rect x="400.93" width="5.67" height="500"/>
	<rect x="413.76" width="5.67" height="500"/>
	<rect x="426.58" width="5.67" height="500"/>
	<rect x="439.4" width="5.67" height="500"/>
	<rect x="452.22" width="5.67" height="500"/>
	<rect x="465.04" width="5.67" height="500"/>
	<rect x="477.86" width="5.67" height="500"/>
	<rect x="490.68" width="5.67" height="500"/>
</g>
</svg>
